<mxfile host="65bd71144e" modified="2021-02-07T05:26:01.469Z" agent="5.0 (Windows NT 10.0; Win64; x64) AppleWebKit/537.36 (KHTML, like Gecko) Code/1.52.1 Chrome/83.0.4103.122 Electron/9.3.5 Safari/537.36" etag="Qev4lvOCQYvxLF_e7ZJZ" version="13.10.0" type="embed">
    <diagram id="4XqiP6bm8ZrSjkMTyTyc" name="Page-1">
        <mxGraphModel dx="749" dy="574" grid="1" gridSize="10" guides="1" tooltips="1" connect="1" arrows="1" fold="1" page="1" pageScale="1" pageWidth="850" pageHeight="1100" math="0" shadow="0">
            <root>
                <mxCell id="0"/>
                <mxCell id="1" parent="0"/>
                <mxCell id="2" value="&lt;font style=&quot;font-size: 17px&quot;&gt;&amp;nbsp; &amp;nbsp; &amp;nbsp;NavController&lt;/font&gt;" style="rounded=0;whiteSpace=wrap;html=1;fillColor=#EFEFEF;verticalAlign=top;align=left;fontColor=#000000;fontSize=17;" parent="1" vertex="1">
                    <mxGeometry x="40" y="10" width="790" height="540" as="geometry"/>
                </mxCell>
                <mxCell id="37" value="NavigatorProvider" style="rounded=1;whiteSpace=wrap;html=1;fontSize=17;fontColor=#000000;align=center;fillColor=none;strokeColor=#000000;dashed=1;strokeWidth=2;verticalAlign=bottom;" parent="1" vertex="1">
                    <mxGeometry x="100" y="267" width="300" height="153" as="geometry"/>
                </mxCell>
                <mxCell id="7" value="NavInflater" style="rounded=1;whiteSpace=wrap;html=1;fontSize=17;fontColor=#ffffff;align=center;fillColor=#1ba1e2;strokeColor=none;" parent="1" vertex="1">
                    <mxGeometry x="100" y="67" width="110" height="90" as="geometry"/>
                </mxCell>
                <mxCell id="22" value="NavGraph" style="rounded=1;whiteSpace=wrap;html=1;fillColor=#76608a;fontSize=17;fontColor=#ffffff;align=center;strokeColor=none;verticalAlign=bottom;" parent="1" vertex="1">
                    <mxGeometry x="425" y="70" width="370" height="350" as="geometry"/>
                </mxCell>
                <mxCell id="30" style="edgeStyle=orthogonalEdgeStyle;rounded=0;orthogonalLoop=1;jettySize=auto;html=1;entryX=0.2;entryY=0.502;entryDx=0;entryDy=0;entryPerimeter=0;fontSize=17;fontColor=#000000;" parent="1" source="24" target="25" edge="1">
                    <mxGeometry relative="1" as="geometry"/>
                </mxCell>
                <mxCell id="32" style="edgeStyle=orthogonalEdgeStyle;rounded=0;orthogonalLoop=1;jettySize=auto;html=1;fontSize=17;fontColor=#000000;" parent="1" source="24" target="28" edge="1">
                    <mxGeometry relative="1" as="geometry"/>
                </mxCell>
                <mxCell id="24" value="B" style="shape=step;perimeter=stepPerimeter;fixedSize=1;points=[];fillColor=#60a917;fontColor=#ffffff;strokeColor=none;" parent="1" vertex="1">
                    <mxGeometry x="535" y="100" width="100" height="57" as="geometry"/>
                </mxCell>
                <mxCell id="25" value="D" style="shape=step;perimeter=stepPerimeter;fixedSize=1;points=[];fillColor=#60a917;fontColor=#ffffff;strokeColor=none;" parent="1" vertex="1">
                    <mxGeometry x="685" y="100" width="100" height="57" as="geometry"/>
                </mxCell>
                <mxCell id="31" style="edgeStyle=orthogonalEdgeStyle;rounded=0;orthogonalLoop=1;jettySize=auto;html=1;entryX=0.3;entryY=0.877;entryDx=0;entryDy=0;entryPerimeter=0;fontSize=17;fontColor=#000000;" parent="1" source="27" target="24" edge="1">
                    <mxGeometry relative="1" as="geometry"/>
                </mxCell>
                <mxCell id="27" value="A" style="shape=step;perimeter=stepPerimeter;fixedSize=1;points=[];fillColor=#60a917;fontColor=#ffffff;strokeColor=none;" parent="1" vertex="1">
                    <mxGeometry x="440" y="210" width="100" height="57" as="geometry"/>
                </mxCell>
                <mxCell id="34" style="edgeStyle=orthogonalEdgeStyle;rounded=0;orthogonalLoop=1;jettySize=auto;html=1;fontSize=17;fontColor=#000000;" parent="1" source="28" target="33" edge="1">
                    <mxGeometry relative="1" as="geometry"/>
                </mxCell>
                <mxCell id="28" value="C" style="shape=step;perimeter=stepPerimeter;fixedSize=1;points=[];fillColor=#60a917;fontColor=#ffffff;strokeColor=none;" parent="1" vertex="1">
                    <mxGeometry x="535" y="290" width="100" height="57" as="geometry"/>
                </mxCell>
                <mxCell id="33" value="C" style="shape=step;perimeter=stepPerimeter;fixedSize=1;points=[];fillColor=#60a917;fontColor=#ffffff;strokeColor=none;" parent="1" vertex="1">
                    <mxGeometry x="675" y="200" width="100" height="57" as="geometry"/>
                </mxCell>
                <mxCell id="36" value="NavGraphNavigator" style="rounded=1;whiteSpace=wrap;html=1;fillColor=#6d8764;fontSize=17;fontColor=#ffffff;align=center;strokeColor=none;" parent="1" vertex="1">
                    <mxGeometry x="110" y="280" width="170" height="50" as="geometry"/>
                </mxCell>
                <mxCell id="38" value="DialogFragment&lt;br&gt;Navigator" style="rounded=1;whiteSpace=wrap;html=1;fillColor=#6d8764;fontSize=17;fontColor=#ffffff;align=center;strokeColor=none;" parent="1" vertex="1">
                    <mxGeometry x="110" y="340" width="170" height="50" as="geometry"/>
                </mxCell>
                <mxCell id="39" value="Activity&lt;br&gt;Navigator" style="rounded=1;whiteSpace=wrap;html=1;fillColor=#6d8764;fontSize=17;fontColor=#ffffff;align=center;strokeColor=none;" parent="1" vertex="1">
                    <mxGeometry x="290" y="280" width="100" height="50" as="geometry"/>
                </mxCell>
                <mxCell id="41" value="Fragment&lt;br&gt;Navigator" style="rounded=1;whiteSpace=wrap;html=1;fillColor=#6d8764;fontSize=17;fontColor=#ffffff;align=center;strokeColor=none;" parent="1" vertex="1">
                    <mxGeometry x="290" y="340" width="100" height="50" as="geometry"/>
                </mxCell>
                <mxCell id="45" value="&lt;font color=&quot;#000000&quot;&gt;A&lt;/font&gt;" style="rounded=1;whiteSpace=wrap;html=1;dashed=1;strokeWidth=2;fontSize=17;fontColor=#ffffff;align=center;fillColor=#f0a30a;strokeColor=none;" parent="1" vertex="1">
                    <mxGeometry x="255" y="200" width="110" height="30" as="geometry"/>
                </mxCell>
                <mxCell id="47" style="edgeStyle=orthogonalEdgeStyle;rounded=0;orthogonalLoop=1;jettySize=auto;html=1;entryX=0;entryY=0.5;entryDx=0;entryDy=0;fontSize=17;fontColor=#000000;strokeColor=#000000;" parent="1" source="46" target="45" edge="1">
                    <mxGeometry relative="1" as="geometry"/>
                </mxCell>
                <mxCell id="46" value="&lt;font color=&quot;#000000&quot;&gt;NavBack&lt;br&gt;StackEntry&lt;/font&gt;" style="rounded=1;whiteSpace=wrap;html=1;dashed=1;strokeWidth=2;fontSize=17;fontColor=#ffffff;align=center;fillColor=#f0a30a;strokeColor=none;" parent="1" vertex="1">
                    <mxGeometry x="100" y="185" width="110" height="60" as="geometry"/>
                </mxCell>
                <mxCell id="48" value="&lt;font color=&quot;#000000&quot;&gt;B&lt;/font&gt;" style="rounded=1;whiteSpace=wrap;html=1;dashed=1;strokeWidth=2;fontSize=17;fontColor=#ffffff;align=center;fillColor=#f0a30a;strokeColor=none;" parent="1" vertex="1">
                    <mxGeometry x="255" y="155" width="110" height="30" as="geometry"/>
                </mxCell>
                <mxCell id="49" value="&lt;font color=&quot;#000000&quot;&gt;D&lt;/font&gt;" style="rounded=1;whiteSpace=wrap;html=1;dashed=1;strokeWidth=2;fontSize=17;fontColor=#ffffff;align=center;fillColor=#f0a30a;strokeColor=none;" parent="1" vertex="1">
                    <mxGeometry x="255" y="110" width="110" height="30" as="geometry"/>
                </mxCell>
                <mxCell id="50" value="NavGatorStateToRestore ( Bundle )&amp;nbsp;" style="rounded=0;whiteSpace=wrap;html=1;dashed=1;strokeWidth=2;fillColor=#a0522d;fontSize=17;fontColor=#ffffff;align=center;strokeColor=none;" parent="1" vertex="1">
                    <mxGeometry x="100" y="460" width="300" height="60" as="geometry"/>
                </mxCell>
                <mxCell id="51" value="BackStackToRestore ( Parcelable[ ] )" style="rounded=0;whiteSpace=wrap;html=1;dashed=1;strokeWidth=2;fillColor=#a0522d;fontSize=17;fontColor=#ffffff;align=center;strokeColor=none;" parent="1" vertex="1">
                    <mxGeometry x="460" y="460" width="300" height="60" as="geometry"/>
                </mxCell>
                <mxCell id="52" value="BackStack" style="shape=partialRectangle;whiteSpace=wrap;html=1;left=0;right=0;fillColor=none;dashed=1;strokeColor=#000000;strokeWidth=2;fontSize=17;fontColor=#000000;align=center;rotation=90;verticalAlign=top;" parent="1" vertex="1">
                    <mxGeometry x="214.38" y="74.38" width="202.5" height="148.75" as="geometry"/>
                </mxCell>
            </root>
        </mxGraphModel>
    </diagram>
</mxfile>